<?xml version="1.0" standalone="no"?>
<!DOCTYPE svg PUBLIC "-//W3C//DTD SVG 20010904//EN"
 "http://www.w3.org/TR/2001/REC-SVG-20010904/DTD/svg10.dtd">
<svg version="1.0" xmlns="http://www.w3.org/2000/svg"
 width="450.000000pt" height="402.000000pt" viewBox="0 0 450.000000 402.000000"
 preserveAspectRatio="xMidYMid meet">
<metadata>
Created by potrace 1.10, written by Peter Selinger 2001-2011
</metadata>
<g transform="translate(0.000000,402.000000) scale(0.050000,-0.050000)"
fill="#000000" stroke="none">
<path d="M1449 7751 c-89 -53 -101 -72 -186 -291 -320 -822 -440 -1945 -303
-2826 17 -107 13 -126 -52 -279 -207 -483 -347 -1223 -348 -1832 l0 -247 135
-141 c996 -1041 2416 -1800 3590 -1919 1210 -123 2867 632 4093 1866 l207 208
-13 337 c-24 642 -134 1194 -337 1701 l-79 198 32 285 c101 899 -23 1908 -332
2689 -148 376 -308 386 -936 57 -479 -251 -898 -568 -1199 -911 l-79 -89 -206
41 c-677 137 -1136 137 -1764 1 l-177 -38 -193 197 c-322 330 -706 606 -1159
833 -431 217 -552 245 -694 160z m376 -230 c41 -13 75 -32 75 -43 0 -11 12
-17 26 -14 29 7 167 -59 210 -99 15 -14 36 -25 47 -25 10 0 14 -9 7 -20 -7
-11 6 -20 28 -20 22 0 60 -20 84 -45 24 -25 38 -34 30 -20 -9 16 -4 21 17 13
17 -7 25 -21 18 -32 -7 -13 4 -15 30 -7 33 10 43 5 43 -21 0 -19 6 -29 13 -22
11 11 120 -53 147 -86 6 -7 26 -19 46 -26 22 -8 31 -24 22 -39 -8 -14 -7 -19
1 -11 22 20 95 -21 80 -45 -6 -10 5 -19 25 -19 20 0 92 -53 161 -117 69 -64
128 -113 133 -108 5 4 14 -11 22 -33 7 -23 19 -42 28 -42 24 0 222 -195 222
-218 0 -23 -27 -30 -80 -22 -16 2 -23 -3 -15 -11 19 -19 -136 -90 -208 -95
-29 -2 -50 -9 -46 -15 11 -18 -223 -104 -262 -96 -22 4 -52 47 -76 107 -23 55
-47 105 -56 110 -8 6 -49 61 -91 122 -87 128 -146 206 -246 323 -38 45 -68 90
-65 100 4 10 -3 13 -13 6 -10 -6 -40 18 -65 54 -25 36 -66 81 -92 102 -25 20
-40 45 -34 55 7 10 4 17 -6 13 -26 -7 -206 157 -190 174 8 7 -3 7 -24 -1 -24
-10 -33 -7 -25 6 8 12 -25 36 -77 55 -49 19 -84 43 -78 53 16 26 -19 22 -46
-5 -38 -38 -18 36 22 79 36 41 83 38 258 -15z m5583 14 c-11 -20 -8 -20 13 0
32 30 167 34 149 5 -7 -11 2 -26 19 -32 36 -14 43 -55 6 -43 -13 4 -37 -4 -52
-20 -16 -15 -41 -22 -56 -16 -17 6 -36 -8 -46 -34 -10 -25 -19 -37 -20 -28 0
10 -14 7 -29 -6 -20 -16 -33 -16 -41 -2 -8 12 -24 21 -37 21 -17 -1 -17 -5 2
-17 25 -16 13 -83 -15 -83 -24 0 -101 -73 -90 -84 6 -6 -17 -22 -50 -36 -37
-15 -61 -39 -61 -62 0 -21 -10 -38 -22 -38 -13 0 -60 -38 -105 -85 -46 -46
-69 -76 -52 -65 26 17 25 15 -1 -10 -18 -16 -38 -46 -45 -65 -8 -19 -28 -35
-44 -35 -17 0 -30 -7 -29 -15 7 -42 -5 -65 -33 -65 -17 0 -26 -8 -20 -19 7
-10 0 -26 -16 -35 -15 -9 -40 -43 -56 -76 -16 -33 -40 -58 -53 -55 -13 3 -23
-2 -22 -10 6 -36 -4 -60 -43 -101 -22 -24 -36 -44 -30 -44 6 0 -7 -34 -29 -75
-22 -41 -40 -86 -40 -101 0 -14 -9 -21 -20 -14 -11 7 -20 3 -20 -9 0 -11 -13
-21 -29 -21 -46 0 -213 92 -196 108 8 8 6 13 -5 10 -29 -8 -150 23 -150 39 0
7 -24 14 -54 16 -30 2 -58 13 -62 25 -4 12 -15 17 -25 11 -60 -36 -120 69 -65
114 29 23 31 23 17 -1 -12 -19 -10 -24 6 -14 13 8 23 24 23 36 0 30 204 236
222 225 9 -6 22 1 30 14 10 16 5 18 -14 7 -15 -9 -11 3 10 27 21 23 56 43 78
43 23 0 35 6 28 13 -7 7 9 34 37 60 56 52 78 60 58 22 -7 -14 17 9 54 50 37
41 110 93 162 116 58 25 91 50 82 63 -8 13 -4 16 10 8 13 -8 23 -3 23 10 0 14
6 19 13 12 7 -7 30 10 52 38 26 33 54 48 78 41 20 -5 33 -2 28 6 -6 8 13 26
41 38 40 18 48 18 36 -2 -7 -14 6 -4 31 21 28 29 58 42 77 34 18 -7 26 -6 18
2 -17 18 97 90 149 94 20 1 37 9 37 18 0 8 15 9 33 2 23 -9 29 -5 19 11 -13
21 11 32 53 25 8 -1 15 8 15 19 0 12 8 16 19 10 10 -6 24 -3 31 9 18 29 35 25
18 -5z m-5638 -459 c217 -207 457 -491 640 -756 l100 -145 -50 -32 c-165 -107
-195 -191 -102 -285 77 -77 124 -73 281 20 1148 679 2603 663 3931 -46 84 -45
144 -40 201 17 90 90 60 202 -70 260 -101 46 -102 35 22 213 259 371 833 990
877 946 145 -147 351 -1544 307 -2087 l-17 -209 -86 131 c-201 310 -348 383
-435 216 -44 -86 -40 -99 113 -300 141 -187 378 -567 378 -608 0 -12 -123 39
-273 113 -1082 530 -2146 585 -2579 133 -393 -410 -304 -840 282 -1358 156
-139 285 -238 952 -732 549 -407 805 -681 861 -923 40 -175 19 -208 -233 -366
-1598 -1001 -2936 -1009 -4561 -27 -294 178 -289 173 -289 307 1 304 224 544
1130 1209 832 611 1085 869 1181 1202 120 417 -209 861 -721 973 -498 108
-1436 -84 -2128 -435 -115 -59 -213 -103 -217 -98 -16 15 243 433 380 613 166
219 178 313 48 368 -109 46 -288 -104 -411 -345 -59 -114 -67 -46 -56 460 13
659 71 1041 247 1610 62 203 41 206 297 -39z m-551 -2259 c-10 -34 -13 -73 -7
-85 6 -12 -3 -5 -21 17 -39 48 -39 60 0 100 45 44 49 39 28 -32z m6737 28 c10
-19 12 -54 6 -77 l-12 -42 -40 40 c-31 31 -32 37 -7 29 36 -13 42 44 7 70 -12
9 -11 15 4 15 14 0 32 -16 42 -35z m-1916 -92 c88 -2 160 -9 160 -16 0 -7 17
-9 38 -3 21 5 56 0 78 -12 30 -16 43 -16 48 1 5 15 18 13 37 -7 17 -17 50 -27
74 -23 25 4 45 0 45 -8 0 -9 27 -17 59 -18 33 -1 76 -9 95 -18 20 -8 45 -17
56 -20 11 -3 34 -8 50 -12 17 -4 36 -15 43 -25 7 -10 40 -20 74 -22 34 -3 97
-24 140 -46 44 -23 84 -36 90 -30 6 6 27 4 47 -5 20 -8 41 -16 47 -17 20 -4
189 -81 199 -91 6 -6 26 -14 45 -17 20 -3 93 -32 163 -63 71 -32 133 -54 138
-49 4 5 32 0 61 -11 29 -11 52 -13 50 -5 -6 40 6 64 31 64 16 0 32 11 37 24
11 35 73 4 94 -48 17 -43 43 -114 51 -136 2 -5 14 -35 27 -66 13 -31 23 -73
23 -94 0 -21 10 -44 21 -51 12 -7 17 -25 11 -40 -5 -14 0 -30 11 -33 11 -4 22
-41 23 -82 1 -41 10 -74 20 -74 10 0 14 -18 8 -40 -6 -22 -1 -45 9 -52 11 -7
15 -24 10 -38 -6 -14 -5 -32 2 -39 20 -19 30 -73 33 -164 1 -46 9 -79 17 -74
8 5 16 -16 17 -47 4 -85 13 -186 25 -285 8 -60 4 -95 -13 -105 -19 -12 -18
-15 1 -16 14 0 25 -19 25 -41 0 -26 -8 -36 -23 -27 -16 10 -18 5 -6 -14 28
-45 31 -225 3 -242 -15 -9 -16 -16 -2 -16 12 0 21 -31 21 -69 0 -38 -6 -66
-13 -61 -7 4 -12 -11 -11 -35 0 -27 -18 -53 -49 -69 -27 -14 -41 -26 -30 -26
23 0 -170 -180 -194 -180 -9 0 -16 -13 -16 -29 0 -17 -12 -25 -28 -19 -15 6
-35 0 -43 -14 -10 -16 -6 -19 13 -9 15 8 1 -9 -32 -38 -33 -29 -83 -75 -112
-102 -28 -27 -58 -49 -67 -49 -8 0 -33 -23 -55 -50 -21 -28 -47 -45 -58 -39
-10 6 -18 1 -18 -12 0 -14 -14 -18 -34 -10 -19 7 -29 7 -22 0 20 -20 -69 -111
-98 -100 -14 5 -23 3 -21 -5 3 -8 -1 -14 -9 -14 -8 0 -27 -17 -42 -38 -44 -61
-87 -27 -103 81 -8 54 -32 135 -53 181 -21 46 -38 93 -38 103 0 11 -7 23 -15
26 -34 15 -106 140 -93 161 9 13 5 17 -8 8 -13 -7 -39 6 -58 30 -20 25 -61 71
-91 104 -30 33 -55 65 -55 72 0 7 -28 28 -61 47 -34 19 -56 44 -49 55 7 11 0
20 -16 20 -44 0 -138 82 -127 110 6 16 -3 22 -23 17 -21 -5 -75 30 -137 88
-57 53 -114 93 -128 88 -13 -4 -19 0 -13 11 7 11 -19 34 -57 52 -38 19 -69 42
-69 54 0 11 -10 20 -21 20 -30 0 -79 52 -79 84 -1 21 -4 21 -18 -1 -13 -20
-33 -10 -86 45 -39 40 -78 72 -88 72 -10 0 -35 22 -56 50 -20 27 -45 44 -55
38 -9 -5 -17 -1 -17 11 0 11 -12 21 -27 21 -39 0 -153 114 -155 155 -2 33 -3
33 -12 0 -5 -20 -17 -30 -28 -24 -10 7 -14 20 -8 29 6 10 -7 14 -29 10 -23 -4
-42 1 -43 11 -2 11 -4 30 -5 44 -2 14 -12 25 -23 26 -43 1 -110 52 -97 73 7
13 4 17 -8 9 -12 -7 -45 16 -74 52 -28 36 -79 93 -111 128 -33 35 -60 69 -60
77 0 7 -14 26 -30 43 -17 17 -25 38 -19 49 6 10 3 18 -7 18 -57 0 -92 336 -47
445 50 122 173 261 218 245 13 -5 22 2 20 16 -3 13 6 22 20 19 14 -3 25 10 25
27 0 28 5 29 34 5 18 -15 28 -17 20 -4 -16 27 40 53 71 34 12 -8 15 -4 7 10
-8 13 -3 24 12 26 14 2 35 4 46 6 11 1 32 9 46 18 14 9 39 12 54 6 16 -6 34
-3 40 8 7 10 48 15 91 11 44 -4 84 0 90 9 6 10 24 12 40 6 16 -6 101 -13 189
-14z m-2667 -9 c-6 -8 30 -13 80 -10 49 3 84 -3 78 -12 -6 -10 7 -14 28 -8 47
12 243 -54 229 -77 -6 -9 2 -12 16 -6 26 10 147 -66 153 -96 2 -8 6 -13 10
-10 19 14 82 -64 125 -153 57 -118 61 -251 12 -402 -18 -55 -30 -107 -28 -115
2 -8 -10 -15 -27 -15 -17 0 -26 -9 -19 -20 7 -11 2 -20 -10 -20 -12 0 -17 -9
-10 -19 6 -11 -7 -31 -29 -45 -23 -14 -41 -35 -41 -47 0 -31 -90 -112 -106
-96 -8 8 -14 3 -14 -10 0 -37 -144 -163 -186 -163 -30 0 -34 8 -21 35 39 80
19 330 -36 448 -54 115 -266 357 -313 357 -15 0 -20 10 -12 23 9 14 5 18 -8 9
-13 -7 -49 0 -81 17 -290 149 -663 50 -885 -235 -44 -57 -91 -117 -105 -134
-13 -16 -26 -39 -28 -50 -3 -11 -15 -47 -28 -80 -41 -106 -3 -429 47 -398 15
9 24 -20 18 -57 -1 -8 9 -13 22 -10 13 3 25 -8 25 -25 1 -16 10 -30 21 -31 11
0 40 -12 65 -25 25 -14 45 -19 45 -11 0 8 11 4 24 -9 59 -59 428 126 380 189
-15 20 77 147 106 147 26 0 120 -125 120 -160 0 -22 193 -180 221 -180 16 0
29 -7 29 -15 0 -9 34 -14 75 -12 l75 3 -110 -98 c-60 -54 -120 -98 -133 -98
-13 0 -27 -7 -30 -15 -9 -21 -177 -151 -177 -138 0 6 -21 -9 -47 -33 -25 -24
-154 -127 -285 -228 -237 -183 -403 -339 -393 -370 4 -14 -21 -19 -68 -15 -6
1 -23 -19 -36 -45 -13 -25 -35 -44 -49 -41 -14 4 -20 -2 -14 -12 6 -10 -13
-44 -43 -75 -30 -32 -54 -64 -55 -71 0 -8 -7 -20 -15 -29 -8 -8 -15 -31 -15
-51 0 -20 -8 -37 -17 -37 -19 0 -80 -200 -88 -288 -6 -67 -37 -86 -78 -48 -15
14 -41 29 -57 32 -17 3 -46 24 -65 47 -19 23 -35 35 -35 27 0 -8 -14 -3 -31
11 -25 20 -26 29 -5 44 20 14 19 16 -4 9 -42 -12 -104 23 -87 50 7 13 4 17 -8
9 -12 -7 -53 19 -91 57 -39 39 -75 70 -82 70 -7 0 -64 49 -127 108 -63 59
-144 132 -180 162 -36 29 -60 61 -55 70 6 10 0 24 -13 32 -15 9 -18 5 -8 -14
8 -15 -13 4 -47 42 -34 39 -61 84 -59 100 1 17 0 39 -2 50 -16 86 14 698 39
810 11 50 25 121 31 159 25 164 74 371 89 377 8 3 11 23 6 45 -6 21 -1 39 10
39 11 0 18 15 16 33 -5 32 20 118 70 237 13 33 26 65 27 70 19 103 104 172
127 103 4 -13 21 -23 37 -23 16 0 25 -7 19 -16 -5 -9 39 -16 98 -16 59 0 106
5 104 11 -2 6 3 13 11 16 9 2 43 19 77 36 34 18 75 27 91 21 16 -6 24 -4 19 5
-6 9 20 31 58 49 50 24 70 26 77 8 5 -13 11 -7 11 13 2 28 13 35 42 27 22 -6
36 -3 30 6 -11 18 201 91 255 88 19 -2 29 5 23 15 -9 16 25 25 87 22 14 0 25
7 25 17 0 10 18 18 40 18 22 0 40 8 40 17 0 10 32 15 70 12 39 -3 66 1 61 10
-10 15 289 73 489 93 61 7 114 15 118 20 16 15 304 8 295 -8z m-283 -613 c340
-142 497 -711 196 -711 -63 0 -146 85 -146 150 0 132 -103 258 -231 282 -138
25 -309 -120 -309 -263 0 -190 -262 -221 -309 -37 -93 371 415 740 799 579z"/>
<path d="M4262 3357 c-514 -85 -433 -644 125 -856 76 -29 47 -105 -75 -199
-259 -200 -552 -254 -856 -156 -140 45 -159 46 -210 20 -137 -71 -117 -243 34
-288 63 -19 83 -38 101 -91 310 -938 1925 -989 2333 -73 47 106 67 129 126
148 180 59 221 235 72 313 -27 14 -85 7 -210 -28 -331 -91 -575 -51 -830 136
-175 128 -177 167 -14 266 748 454 368 968 -596 808z m312 -220 c23 -19 32
-19 44 0 21 33 163 24 207 -13 23 -20 35 -22 35 -7 0 39 53 26 88 -22 19 -25
28 -31 20 -15 -8 17 5 10 29 -14 65 -67 -4 -226 -97 -226 -12 0 -17 -8 -11
-18 10 -16 -13 -32 -54 -39 -8 -2 -33 -21 -56 -44 -22 -22 -49 -35 -60 -29
-10 7 -13 -2 -7 -19 12 -29 -13 -42 -62 -32 -11 3 -14 -2 -6 -9 7 -8 -4 -33
-26 -57 l-40 -43 -78 85 c-43 47 -88 85 -100 85 -12 0 -16 10 -8 23 8 14 5 18
-7 10 -22 -14 -121 59 -199 147 -39 45 -46 85 -28 183 9 53 362 98 416 54z
m26 -878 c0 -12 7 -17 16 -11 9 5 52 -28 96 -74 43 -46 88 -86 98 -89 11 -3
59 -30 107 -60 47 -30 94 -56 105 -57 10 -2 25 -5 33 -8 8 -3 22 -4 30 -2 8 1
15 -8 15 -19 0 -12 17 -16 38 -10 21 7 43 5 49 -4 6 -9 49 -19 97 -22 47 -3
89 -15 93 -26 5 -14 12 -15 20 -1 14 22 49 30 118 26 51 -2 54 -17 22 -96 -13
-31 -22 -63 -20 -72 2 -8 -10 -20 -27 -27 -16 -6 -30 -22 -30 -35 0 -50 -130
-154 -159 -127 -22 20 -24 19 -10 -5 9 -16 -37 24 -103 90 -120 123 -208 198
-208 179 0 -5 -29 6 -65 25 -72 38 -78 40 -136 44 -23 1 -36 10 -30 20 6 10
-21 13 -60 8 -45 -6 -88 2 -119 22 -35 23 -52 25 -62 9 -9 -15 -5 -18 12 -7
18 11 21 8 11 -9 -9 -15 -43 -22 -83 -17 -37 4 -70 -1 -74 -11 -6 -20 -69 -37
-147 -41 -24 -1 -39 -8 -35 -16 5 -7 -10 -19 -32 -26 -61 -19 -282 -231 -267
-255 7 -12 4 -15 -9 -8 -11 8 -27 5 -34 -7 -17 -27 -130 32 -130 69 0 15 -7
31 -15 34 -30 14 -87 138 -73 160 8 14 5 18 -7 10 -11 -7 -27 2 -34 21 -16 43
24 67 78 46 60 -23 334 29 461 87 59 27 112 46 118 41 7 -4 8 -2 3 5 -6 7 28
37 75 66 46 30 116 87 154 127 69 72 120 94 120 53z m333 -655 c197 -100 204
-108 117 -150 -208 -99 -587 -116 -842 -37 -192 59 -204 69 -135 117 275 194
569 218 860 70z"/>
<path d="M6140 4357 c0 -8 -16 -11 -35 -8 -19 3 -39 0 -45 -7 -5 -7 -54 -34
-107 -62 -54 -27 -108 -66 -120 -85 -13 -19 -34 -35 -48 -35 -15 0 -31 -13
-38 -30 -6 -16 -21 -24 -32 -17 -12 7 -15 4 -8 -8 16 -26 -35 -70 -57 -50 -9
8 -10 4 -2 -9 7 -14 -9 -61 -37 -105 -28 -44 -51 -92 -51 -107 0 -14 -10 -36
-23 -49 -19 -19 -21 -68 -11 -279 1 -24 8 -40 16 -35 20 13 41 -51 25 -76 -7
-12 -4 -16 7 -9 11 7 49 -18 84 -57 35 -38 72 -69 84 -69 11 0 15 -8 9 -18 -6
-10 8 -13 32 -7 27 7 38 3 31 -9 -8 -12 5 -18 32 -14 24 4 62 10 84 13 22 3
45 10 50 15 53 52 123 104 110 82 -11 -19 -9 -24 7 -14 13 8 23 26 23 41 0 15
14 32 31 39 17 6 26 20 20 31 -7 10 6 29 29 41 23 12 36 31 29 42 -7 10 9 36
34 57 46 37 106 -9 123 -93 2 -9 50 -63 108 -121 58 -58 99 -105 91 -105 -8 0
-1 -9 15 -20 50 -31 300 38 300 83 0 11 9 14 20 7 12 -7 19 -6 16 4 -3 9 19
48 49 88 30 39 55 82 55 95 0 13 7 23 15 23 21 0 13 177 -12 255 -11 36 -15
65 -8 65 7 0 -2 11 -20 25 -18 14 -35 43 -39 64 -7 46 -59 108 -81 97 -8 -5
-15 5 -15 20 0 16 -13 40 -30 54 -16 13 -24 34 -17 45 7 12 4 15 -9 8 -11 -8
-27 -4 -34 7 -7 11 -23 15 -34 7 -13 -8 -16 -4 -8 10 9 14 -14 39 -57 65 -39
23 -71 51 -71 61 0 11 -8 14 -18 8 -10 -6 -52 4 -95 22 -75 32 -367 51 -367
24z m410 -252 c281 -146 420 -555 226 -664 -106 -59 -200 16 -226 183 -48 309
-475 294 -522 -18 -37 -251 -323 -243 -315 9 12 398 483 674 837 490z"/>
</g>
</svg>
