<?xml version="1.0" standalone="no"?>
<!DOCTYPE svg PUBLIC "-//W3C//DTD SVG 20010904//EN"
 "http://www.w3.org/TR/2001/REC-SVG-20010904/DTD/svg10.dtd">
<svg version="1.0" xmlns="http://www.w3.org/2000/svg"
 width="900.000000pt" height="804.000000pt" viewBox="0 0 900.000000 804.000000"
 preserveAspectRatio="xMidYMid meet">
<metadata>
Created by potrace 1.10, written by Peter Selinger 2001-2011
</metadata>
<g transform="translate(0.000000,804.000000) scale(0.100000,-0.100000)"
fill="#ffffff" stroke="none">
<path d="M1495 7773 c-120 -48 -181 -135 -264 -378 -11 -33 -31 -91 -44 -130
-13 -38 -32 -97 -42 -130 -10 -33 -24 -78 -31 -100 -20 -65 -66 -249 -88 -350
-95 -443 -131 -784 -131 -1245 0 -346 27 -704 65 -877 10 -43 2 -71 -55 -198
-7 -16 -28 -68 -45 -115 -17 -47 -38 -100 -46 -118 -8 -18 -14 -39 -14 -47 0
-8 -6 -29 -14 -47 -36 -84 -113 -391 -150 -598 -55 -313 -62 -382 -82 -777
-20 -391 -22 -380 79 -483 187 -190 379 -368 597 -551 152 -128 568 -441 658
-494 9 -6 55 -36 102 -66 142 -94 201 -131 235 -149 11 -6 34 -19 50 -29 17
-11 50 -31 75 -44 25 -14 74 -41 110 -61 66 -37 264 -135 355 -175 66 -30 96
-44 178 -80 37 -17 72 -31 78 -31 6 0 20 -5 32 -12 27 -15 81 -36 122 -48 37
-10 90 -29 132 -47 17 -7 37 -13 44 -13 7 0 31 -6 54 -14 56 -19 238 -66 350
-90 300 -63 460 -78 786 -74 162 3 330 10 374 17 199 30 375 65 446 87 26 8
55 14 65 14 10 0 36 6 59 14 22 7 65 21 95 30 83 24 258 83 320 106 30 12 66
25 80 30 30 9 226 94 325 139 154 72 335 168 540 289 202 119 547 353 705 477
25 19 90 70 145 112 55 42 102 80 105 83 3 3 48 41 100 84 52 44 102 86 111
95 9 9 60 56 115 106 126 114 318 307 361 363 l33 44 0 183 c0 100 -4 227 -10
281 -5 55 -14 153 -20 219 -18 210 -52 435 -91 605 -11 52 -25 113 -29 135 -7
38 -25 104 -56 205 -7 25 -20 68 -28 95 -8 28 -31 95 -51 150 -20 55 -40 112
-44 126 -5 14 -13 34 -19 45 -9 18 -18 37 -56 127 -20 47 -20 104 -1 221 36
229 47 407 47 770 0 259 -4 402 -16 506 -8 80 -17 165 -19 190 -6 69 -26 206
-43 295 -8 44 -22 116 -30 160 -9 44 -22 105 -29 135 -8 30 -23 91 -34 135
-26 106 -48 190 -61 228 -6 18 -26 79 -45 137 -41 126 -63 188 -74 215 -5 11
-16 40 -26 65 -52 136 -96 192 -181 234 -87 43 -162 46 -261 11 -162 -57 -362
-148 -543 -248 -30 -16 -75 -41 -100 -55 -25 -13 -76 -43 -113 -66 -37 -22
-76 -46 -85 -51 -66 -40 -161 -106 -310 -218 -184 -138 -462 -393 -554 -510
-22 -29 -48 -55 -57 -58 -19 -8 -55 -3 -131 16 -87 22 -186 42 -300 59 -58 9
-130 21 -160 26 -75 13 -336 30 -500 33 -161 2 -340 -8 -470 -29 -213 -33
-378 -64 -480 -89 -114 -29 -98 -35 -199 74 -130 141 -249 255 -341 329 -25
20 -49 41 -55 47 -13 14 -178 142 -224 173 -20 14 -69 48 -109 76 -40 28 -81
56 -90 61 -9 6 -42 26 -72 46 -52 34 -105 64 -265 151 -75 41 -232 118 -305
150 -25 10 -58 25 -75 32 -174 76 -276 93 -360 59z m220 -664 c122 -112 210
-204 360 -374 156 -178 405 -527 405 -570 0 -14 -5 -25 -11 -25 -22 0 -121
-74 -145 -109 -55 -81 -12 -196 85 -228 52 -18 93 -9 169 36 26 15 54 30 62
34 8 4 31 17 50 28 68 41 121 66 280 135 47 20 96 40 110 44 14 5 50 18 80 30
78 30 200 69 325 105 33 9 80 23 105 30 75 21 279 62 445 89 264 43 586 58
750 36 39 -6 99 -12 135 -15 93 -8 339 -50 450 -77 25 -6 61 -14 80 -18 19 -4
71 -18 115 -30 44 -12 94 -26 110 -31 117 -33 174 -52 313 -103 133 -50 284
-122 555 -265 90 -47 116 -50 177 -18 64 32 85 66 84 136 -1 73 -27 111 -102
149 -91 46 -92 49 -38 138 60 98 263 369 379 504 173 201 497 510 536 510 14
0 22 -8 27 -27 3 -16 11 -44 19 -63 7 -19 21 -62 30 -95 10 -33 24 -78 31
-100 6 -22 19 -67 27 -100 9 -33 22 -87 31 -120 112 -443 164 -919 153 -1421
-5 -276 -15 -352 -41 -310 -6 10 -44 64 -85 120 -160 218 -200 255 -275 256
-86 1 -156 -71 -156 -160 0 -44 6 -56 63 -130 34 -45 68 -92 76 -103 8 -12 25
-33 37 -47 87 -98 339 -528 321 -547 -4 -3 -66 24 -139 60 -155 76 -202 97
-358 162 -155 63 -170 69 -285 105 -55 18 -115 38 -133 46 -18 8 -40 14 -50
14 -9 0 -37 6 -62 14 -375 120 -862 181 -1149 145 -186 -23 -309 -57 -441
-122 -68 -33 -104 -61 -192 -145 -98 -95 -208 -239 -208 -272 0 -7 -6 -24 -14
-38 -63 -119 -60 -326 6 -502 19 -52 99 -187 155 -260 73 -98 271 -293 433
-427 163 -135 271 -217 450 -345 434 -310 666 -488 835 -642 295 -269 415
-458 415 -653 0 -45 -4 -93 -9 -106 -11 -29 -169 -136 -409 -278 -159 -93
-642 -334 -722 -360 -25 -8 -53 -18 -160 -59 -103 -39 -250 -84 -440 -134
-237 -62 -557 -106 -778 -106 -142 0 -366 20 -509 45 -45 8 -93 15 -107 15
-15 0 -54 7 -89 16 -318 80 -431 115 -637 194 -30 12 -67 25 -81 30 -14 4 -34
12 -45 17 -10 6 -35 17 -54 26 -58 26 -483 237 -515 256 -16 9 -61 35 -100 56
-38 21 -88 50 -110 64 -22 14 -53 33 -70 42 -16 9 -75 46 -130 83 -84 56 -102
73 -117 109 -33 81 -18 183 48 324 71 151 279 369 589 617 116 92 239 187 275
211 36 24 134 94 217 157 84 62 211 155 283 207 72 52 138 102 148 110 9 9 53
45 96 81 78 64 271 234 311 275 63 63 200 233 242 300 28 45 75 151 96 213 29
92 31 302 3 377 -54 144 -97 213 -205 327 -166 175 -340 255 -656 300 -231 33
-646 -4 -977 -88 -144 -36 -186 -47 -223 -60 -23 -8 -48 -14 -57 -14 -10 0
-32 -6 -50 -14 -18 -7 -58 -21 -88 -30 -30 -9 -73 -24 -95 -33 -22 -8 -56 -21
-75 -28 -45 -17 -186 -73 -225 -91 -16 -7 -57 -25 -90 -40 -82 -36 -213 -101
-250 -124 -16 -10 -36 -19 -42 -19 -15 -1 -17 40 -4 55 5 5 34 58 66 117 78
149 228 369 388 570 42 54 34 150 -19 202 -33 33 -38 35 -107 35 l-71 0 -60
-62 c-55 -58 -156 -189 -216 -280 -14 -21 -30 -38 -36 -38 -34 0 -30 771 5
1040 33 244 44 321 57 385 37 183 46 224 60 271 8 28 14 59 14 69 0 9 6 38 14
64 8 25 22 73 32 106 34 119 47 161 60 193 8 18 14 40 14 50 0 9 9 32 20 50
25 41 14 48 205 -129z m1294 -2965 c94 -28 177 -75 239 -135 62 -60 132 -157
132 -181 0 -8 5 -19 10 -24 16 -16 50 -162 50 -214 0 -93 -74 -171 -159 -169
-93 1 -134 46 -160 174 -30 153 -83 215 -205 241 -163 34 -305 -71 -319 -237
-10 -113 -70 -179 -163 -179 -35 0 -87 21 -110 45 -41 40 -55 148 -33 242 29
121 77 202 174 299 63 62 107 88 218 129 79 30 240 34 326 9z m3416 -9 c164
-42 329 -183 383 -325 29 -75 52 -176 52 -225 0 -42 -6 -60 -30 -93 -50 -69
-117 -89 -191 -58 -50 21 -75 62 -94 157 -33 168 -143 261 -291 246 -126 -13
-234 -122 -234 -235 0 -45 -30 -121 -57 -143 -88 -74 -215 -38 -252 70 -15 45
-14 82 3 161 20 91 34 126 79 195 52 79 80 108 152 160 143 102 312 134 480
90z"/>
<path d="M4320 3354 c-173 -19 -255 -51 -342 -131 -40 -38 -52 -58 -69 -115
-43 -140 -8 -242 132 -379 73 -72 188 -161 249 -192 110 -56 129 -78 116 -132
-16 -62 -225 -217 -357 -264 -185 -67 -426 -69 -599 -6 -160 58 -189 57 -255
-9 -67 -67 -71 -130 -13 -200 31 -38 101 -76 139 -76 13 0 26 -15 40 -47 86
-194 154 -298 264 -408 110 -110 152 -141 273 -203 206 -105 363 -143 627
-150 228 -5 358 15 560 90 100 37 139 57 240 124 113 75 183 140 258 241 62
84 167 272 167 300 0 18 38 41 101 59 37 11 67 29 96 59 41 40 43 45 43 101 0
71 -26 115 -86 144 -52 26 -64 25 -159 -6 -168 -55 -215 -64 -345 -64 -69 0
-143 5 -165 11 -22 6 -59 14 -82 19 -23 5 -50 14 -60 19 -10 6 -50 26 -90 45
-85 41 -139 79 -215 152 -52 49 -58 59 -58 95 0 29 5 41 18 46 9 3 24 12 32
18 8 7 31 21 50 31 114 61 319 229 352 289 62 112 61 108 61 196 0 75 -3 91
-28 138 -47 85 -117 137 -245 181 -105 36 -436 48 -650 24z m387 -1675 c135
-32 372 -153 373 -191 0 -40 -214 -109 -397 -128 -155 -16 -400 9 -498 50 -11
5 -37 14 -57 20 -21 6 -40 16 -43 21 -4 5 -15 9 -25 9 -23 0 -34 15 -23 34 11
19 109 86 127 86 7 0 19 7 26 15 7 8 18 15 26 15 7 0 28 9 47 20 50 30 213 69
289 69 36 1 106 -8 155 -20z"/>
</g>
</svg>
